<?xml version="1.0" encoding="iso-8859-1"?>
<!-- Generator: Adobe Illustrator 19.0.0, SVG Export Plug-In . SVG Version: 6.00 Build 0)  -->
<svg version="1.1" id="Layer_1" xmlns="http://www.w3.org/2000/svg" xmlns:xlink="http://www.w3.org/1999/xlink" x="0px" y="0px"
	 viewBox="0 0 511.845 511.845" style="enable-background:new 0 0 511.845 511.845;" xml:space="preserve">
<path style="fill:#9ED36A;" d="M503.141,8.696c-0.016,0-215.215-56.483-390.225,118.511
	C-31.579,271.711,96.155,415.69,96.155,415.69s143.979,127.742,288.476-16.775C559.64,223.928,503.156,8.728,503.141,8.696z"/>
<g style="opacity:0.2;">
	<path style="fill:#FFFFFF;" d="M503.141,8.696l-21.337-4.108c0.016,0.031,56.499,219.339-118.495,394.326
		c-48.172,48.203-96.299,66.104-139.052,68.572c47.705,2.75,104-12.184,160.374-68.572C559.64,223.928,503.156,8.728,503.141,8.696z
		"/>
</g>
<path style="fill:#8AC054;" d="M300.125,211.728c-4.154-4.17-10.918-4.17-15.074,0L3.122,493.635c-4.163,4.186-4.163,10.934,0,15.09
	c4.163,4.154,10.911,4.154,15.081,0l281.922-281.923C304.295,222.631,304.295,215.883,300.125,211.728z"/>
<g>
</g>
<g>
</g>
<g>
</g>
<g>
</g>
<g>
</g>
<g>
</g>
<g>
</g>
<g>
</g>
<g>
</g>
<g>
</g>
<g>
</g>
<g>
</g>
<g>
</g>
<g>
</g>
<g>
</g>
</svg>
